#!OML:ASF E:\Mandelcareful walks\Project 1\Capture day 1\Session 1\Subject1.ASF
:FULLY-SPECIFIED
:DEGREES
828
root 32.4985 16.3995 -0.653733 528.44 -86.3158 557.85
lowerback 8.52856 2.44637 -0.538478
upperback 6.18414 2.97085 0.0205451
thorax 1.59781 1.36862 0.113103
lowerneck -26.0836 1.01278 -1.95226
upperneck 17.5479 2.49118 -1.61914
head 9.84156 0.800662 0.129053
rclavicle -1.07336e-014 1.22066e-014
rhumerus -27.4078 1.30896 -81.9565
rradius 36.8973
rwrist -19.5313
rhand -14.7785 -28.714
rfingers 7.12502
rthumb 11.3783 -58.3853
lclavicle -1.07336e-014 1.22066e-014
lhumerus -29.6837 2.70965 86.0552
lradius 28.7354
lwrist 12.3278
lhand -21.5984 -15.8152
lfingers 7.12502
lthumb 4.79657 14.1105
rfemur 14.458 -6.58125 16.2324
rtibia 2.8625e-014
rfoot -14.4508 -12.1614
rtoes -0.460702
lfemur -35.0775 11.2973 -14.502
ltibia 40.504
lfoot -9.72888 8.35289
ltoes 3.47695
829
root 32.3319 16.371 -0.543807 528.88 -86.37 557.578
lowerback 8.48884 2.55645 -0.835755
upperback 6.05 3.10608 -0.0215915
thorax 1.46564 1.43212 0.224172
lowerneck -26.1117 0.338834 -2.56192
upperneck 17.2809 1.6092 -0.840646
head 9.73801 0.454876 0.365002
rclavicle -2.21024e-014 1.20762e-014
rhumerus -27.4547 0.946854 -81.7214
rradius 36.6808
rwrist -17.0077
rhand -13.4167 -27.5924
rfingers 7.12502
rthumb 12.6915 -57.1868
lclavicle -2.21024e-014 1.20762e-014
lhumerus -29.5893 2.55079 86.0599
lradius 28.8238
lwrist 12.5436
lhand -21.0202 -15.9291
lfingers 7.12502
lthumb 5.35487 13.9832
rfemur 14.9686 -6.54774 15.7418
rtibia -5.08889e-014
rfoot -14.5933 -11.8556
rtoes 0.0325789
lfemur -35.5537 11.6484 -15.0999
ltibia 41.6384
lfoot -10.1814 8.00082
ltoes 1.40768
830
root 32.162 16.3666 -0.434166 530.167 -86.2467 556.488
lowerback 8.33993 2.72108 -1.09294
upperback 5.96376 3.31602 -0.110846
thorax 1.44646 1.53398 0.26515
lowerneck -26.2157 -0.277582 -3.09583
upperneck 17.0437 0.794797 -0.101347
head 9.67128 0.13863 0.585909
rclavicle -8.38623e-015 1.09332e-015
rhumerus -27.5234 1.61693 -82.1387
rradius 37.0656
rwrist -17.7237
rhand -16.1583 -28.3106
rfingers 7.12502
rthumb 10.0474 -58.0508
lclavicle -8.38623e-015 1.09332e-015
lhumerus -29.308 2.40788 86.0087
lradius 28.7192
lwrist 12.8888
lhand -21.0548 -15.2715
lfingers 7.12502
lthumb 5.32143 14.6417
rfemur 15.3569 -6.32998 15.2076
rtibia 2.54444e-014
rfoot -14.8431 -11.4861
rtoes 0.392288
lfemur -35.6483 12.0297 -15.5541
ltibia 42.7528
lfoot -11.3364 7.39288
ltoes 2.73014
831
root 31.9917 16.3605 -0.325087 529.633 -85.8849 557.152
lowerback 8.07961 2.90635 -1.28884
upperback 5.95059 3.55724 -0.0841574
thorax 1.55934 1.64904 0.397007
lowerneck -26.3489 -0.707958 -3.41705
upperneck 16.8537 0.231516 0.328077
head 9.63341 -0.087347 0.701781
rclavicle -4.02539e-015 -7.45443e-016
rhumerus -27.3151 2.19045 -82.3578
rradius 36.7563
rwrist -18.2156
rhand -14.9716 -29.3357
rfingers 7.12502
rthumb 11.1921 -59.0171
lclavicle -4.02539e-015 -7.45443e-016
lhumerus -29.0969 2.48909 86.0153
lradius 28.745
lwrist 13.3095
lhand -24.5492 -16.1936
lfingers 7.12502
lthumb 1.94693 13.7773
rfemur 15.721 -5.90206 14.8725
rtibia -2.22639e-014
rfoot -14.4105 -12.415
rtoes -1.44433
lfemur -35.5079 12.5779 -15.7829
ltibia 43.7199
lfoot -12.579 6.81453
ltoes 4.15865
832
root 31.8258 16.3545 -0.21667 529.286 -85.6014 557.571
lowerback 7.96695 3.02399 -1.45591
upperback 5.94681 3.7063 -0.0556016
thorax 1.60273 1.71812 0.514696
lowerneck -26.5498 -1.1797 -3.86752
upperneck 16.8737 -0.333915 0.758742
head 9.68711 -0.325698 0.838808
rclavicle -2.48978e-014 1.51076e-014
rhumerus -26.9608 2.64824 -82.5169
rradius 36.4372
rwrist -18.2008
rhand -13.2248 -30.0597
rfingers 7.12502
rthumb 12.8765 -59.6425
lclavicle -2.48978e-014 1.51076e-014
lhumerus -28.8477 2.72733 85.986
lradius 28.6715
lwrist 13.6009
lhand -25.7543 -17.0083
lfingers 7.12502
lthumb 0.783075 12.97
rfemur 16.115 -5.54796 14.5364
rtibia 5.08889e-014
rfoot -13.6344 -13.4122
rtoes -3.23723
lfemur -35.3713 13.0545 -16.0831
ltibia 44.6085
lfoot -13.676 6.45769
ltoes 4.04399
